<svg width="394" height="395" xmlns="http://www.w3.org/2000/svg" xmlns:xlink="http://www.w3.org/1999/xlink" xml:space="preserve" overflow="hidden"><g transform="translate(-1495 -576)"><rect x="1497.5" y="578.5" width="389" height="390" stroke="#7AB8F5" stroke-width="4.58333" stroke-miterlimit="8" fill="#7AB8F5"/><g><g><g><path d="M1718.5 810.813C1718.21 810.813 1717.94 810.875 1717.65 810.899 1717.37 810.923 1717.09 810.813 1716.8 810.813L1601.62 810.813C1595.93 810.813 1591.31 815.43 1591.31 821.125 1591.31 826.821 1595.93 831.438 1601.62 831.438L1716.8 831.438C1717.09 831.438 1717.36 831.376 1717.65 831.352 1717.93 831.328 1718.2 831.438 1718.5 831.438 1724.2 831.441 1728.81 836.061 1728.81 841.756 1728.8 847.452 1724.18 852.066 1718.49 852.063 1714.74 852.06 1711.28 850.023 1709.47 846.741 1706.79 841.716 1700.54 839.815 1695.52 842.495 1690.49 845.175 1688.59 851.422 1691.27 856.448 1691.33 856.55 1691.38 856.651 1691.44 856.751 1699.72 871.695 1718.55 877.092 1733.5 868.807 1748.44 860.522 1753.84 841.692 1745.55 826.749 1740.1 816.915 1729.74 810.814 1718.5 810.813Z" stroke="#FFFFFF" stroke-width="9.16667" fill="#00B0F0"/><path d="M1584.44 748.938 1680.69 748.938C1701.57 748.935 1718.5 732.003 1718.5 711.12 1718.49 690.237 1701.56 673.31 1680.68 673.313 1661.68 673.315 1645.63 687.418 1643.18 706.261 1642.46 711.911 1646.45 717.081 1652.1 717.808 1657.75 718.535 1662.92 714.544 1663.64 708.894 1664.88 699.482 1673.51 692.851 1682.92 694.083 1692.33 695.315 1698.96 703.944 1697.73 713.356 1696.61 721.913 1689.32 728.312 1680.69 728.313L1584.44 728.313C1578.74 728.313 1574.12 732.93 1574.12 738.625 1574.12 744.321 1578.74 748.938 1584.44 748.938Z" stroke="#FFFFFF" stroke-width="9.16667" fill="#00B0F0"/><path d="M1783.81 687.063C1755.31 687.085 1732.23 710.208 1732.25 738.708 1732.25 743.015 1732.8 747.305 1733.87 751.478 1735.28 756.995 1740.9 760.319 1746.42 758.903 1751.94 757.487 1755.26 751.866 1753.84 746.349 1749.58 729.804 1759.53 712.933 1776.08 708.667 1792.62 704.401 1809.49 714.356 1813.76 730.901 1818.03 747.446 1808.07 764.317 1791.53 768.583 1789.01 769.233 1786.41 769.562 1783.81 769.563L1556.94 769.563C1551.24 769.563 1546.62 774.18 1546.62 779.875 1546.62 785.571 1551.24 790.188 1556.94 790.188L1783.81 790.188C1812.29 790.188 1835.37 767.102 1835.37 738.625 1835.37 710.148 1812.29 687.063 1783.81 687.063Z" stroke="#FFFFFF" stroke-width="9.16667" fill="#00B0F0"/></g></g></g></g></svg>