<svg width="395" height="394" xmlns="http://www.w3.org/2000/svg" xmlns:xlink="http://www.w3.org/1999/xlink" xml:space="preserve" overflow="hidden"><g transform="translate(-2917 -256)"><rect x="2919.5" y="258.5" width="390" height="389" stroke="#7AB8F5" stroke-width="4.58333" stroke-miterlimit="8" fill="#7AB8F5"/><text fill="#FFFFFF" font-family="DengXian,DengXian_MSFontService,sans-serif" font-weight="400" font-size="83" transform="matrix(1 0 0 1 3091.93 431)">3</text><path d="M3037 390C3037 339.742 3069.01 299 3108.5 299 3147.99 299 3180 339.742 3180 390 3180 440.258 3147.99 481 3108.5 481 3069.01 481 3037 440.258 3037 390Z" fill="#FFFFFF" fill-rule="evenodd"/><path d="M3073.38 499 3142.62 499C3148.5 499 3153 503.334 3153 509 3153 514.667 3148.5 519 3142.62 519L3073.38 519C3067.5 519 3063 514.667 3063 509 3063 503.334 3067.5 499 3073.38 499Z" fill="#FFFFFF" fill-rule="evenodd"/><path d="M3073.38 533 3142.62 533C3148.5 533 3153 537.55 3153 543.5 3153 549.45 3148.5 554 3142.62 554L3073.38 554C3067.5 554 3063 549.45 3063 543.5 3063 537.55 3067.5 533 3073.38 533Z" fill="#FFFFFF" fill-rule="evenodd"/><path d="M3086 568C3087.01 579.333 3096.49 588 3108 588 3119.51 588 3128.98 579.333 3130 568L3086 568Z" fill="#FFFFFF" fill-rule="evenodd"/><path d="M3108 299C3108 299 3108 299 3108 299 3108 299 3108 299 3108 299 3059.39 299.344 3020.03 338.611 3019 387.522L3019 390.622C3019.34 401.3 3021.4 411.634 3025.16 421.622 3028.93 430.922 3034.06 439.533 3040.57 447.111 3048.78 456.067 3057.68 473.634 3061.45 481.211 3062.47 483.622 3064.87 485 3067.61 485L3148.39 485C3151.13 485 3153.53 483.622 3154.55 481.211 3158.32 473.634 3167.22 456.067 3175.43 447.111 3181.94 439.533 3187.42 430.922 3190.84 421.622 3194.6 411.634 3196.66 401.3 3197 390.622L3197 387.522C3195.97 338.611 3156.61 299.344 3108 299ZM3176.46 390.278C3176.12 398.545 3174.41 406.811 3171.67 414.389 3168.93 421.278 3165.17 427.822 3160.03 433.333 3152.16 442.978 3145.31 453.311 3140.18 464.333L3108 464.333 3076.17 464.333C3070.69 453.311 3063.84 442.978 3056.31 433.333 3051.52 427.822 3047.41 421.278 3044.67 414.389 3041.59 406.811 3040.22 398.545 3039.88 390.278L3039.88 387.522C3040.57 349.978 3071.03 319.667 3108.34 319.322L3108.34 319.322 3108.34 319.322C3108.34 319.322 3108.34 319.322 3108.34 319.322 3108.34 319.322 3108.34 319.322 3108.34 319.322L3108.34 319.322 3108.34 319.322C3145.65 319.667 3176.12 349.634 3176.8 387.522L3176.8 390.278Z" fill="#FFFFFF" fill-rule="evenodd"/></g></svg>