<svg width="395" height="395" xmlns="http://www.w3.org/2000/svg" xmlns:xlink="http://www.w3.org/1999/xlink" xml:space="preserve" overflow="hidden"><g transform="translate(-2345 -253)"><rect x="2347.5" y="255.5" width="390" height="390" stroke="#7AB8F5" stroke-width="4.58333" stroke-miterlimit="8" fill="#7AB8F5"/><text fill="#FFFFFF" font-family="DengXian,DengXian_MSFontService,sans-serif" font-weight="400" font-size="83" transform="matrix(1 0 0 1 2520.4 428)">3</text><path d="M2466 388C2466 337.742 2498.01 297 2537.5 297 2576.99 297 2609 337.742 2609 388 2609 438.258 2576.99 479 2537.5 479 2498.01 479 2466 438.258 2466 388Z" fill="#FFC000" fill-rule="evenodd"/><path d="M2502.27 496 2570.73 496C2576.55 496 2581 500.55 2581 506.5 2581 512.45 2576.55 517 2570.73 517L2502.27 517C2496.45 517 2492 512.45 2492 506.5 2492 500.55 2496.45 496 2502.27 496Z" fill="#FFFFFF" fill-rule="evenodd"/><path d="M2502.27 531 2570.73 531C2576.55 531 2581 535.334 2581 541 2581 546.667 2576.55 551 2570.73 551L2502.27 551C2496.45 551 2492 546.667 2492 541 2492 535.334 2496.45 531 2502.27 531Z" fill="#FFFFFF" fill-rule="evenodd"/><path d="M2514 565C2515.04 576.9 2524.73 586 2536.5 586 2548.27 586 2557.96 576.9 2559 565L2514 565Z" fill="#FFFFFF" fill-rule="evenodd"/><path d="M2536.5 297C2536.5 297 2536.5 297 2536.5 297 2536.5 297 2536.5 297 2536.5 297 2487.62 297.342 2448.03 336.398 2447 385.046L2447 388.13C2447.34 398.75 2449.41 409.028 2453.2 418.963 2456.98 428.213 2462.15 436.778 2468.69 444.315 2476.95 453.222 2485.9 470.695 2489.68 478.232 2490.72 480.63 2493.13 482 2495.88 482L2577.12 482C2579.87 482 2582.28 480.63 2583.32 478.232 2587.1 470.695 2596.05 453.222 2604.31 444.315 2610.85 436.778 2616.36 428.213 2619.8 418.963 2623.59 409.028 2625.66 398.75 2626 388.13L2626 385.046C2624.97 336.398 2585.38 297.342 2536.5 297ZM2605.35 387.787C2605 396.009 2603.28 404.232 2600.53 411.769 2597.77 418.621 2593.99 425.13 2588.82 430.611 2580.91 440.204 2574.02 450.481 2568.86 461.444L2536.5 461.444 2504.49 461.444C2498.98 450.481 2492.09 440.204 2484.52 430.611 2479.7 425.13 2475.57 418.621 2472.82 411.769 2469.72 404.232 2468.34 396.009 2468 387.787L2468 385.046C2468.69 347.704 2499.32 317.556 2536.84 317.213L2536.84 317.213 2536.84 317.213C2536.84 317.213 2536.84 317.213 2536.84 317.213 2536.84 317.213 2536.84 317.213 2536.84 317.213L2536.84 317.213 2536.84 317.213C2574.37 317.556 2605 347.361 2605.69 385.046L2605.69 387.787Z" fill="#FFFFFF" fill-rule="evenodd"/></g></svg>